# xmcd CD database file
#
# Track frame offsets:
#	150
#	22332
#	40052
#
# Disc length: 777 seconds
#
# Revision: 0
# Processed by: cddbd v1.5.1PL0 Copyright (c) Steve Scherf et al.
# Submitted via: CDex 1.51
#
DISCID=20030703
DTITLE=Meyou - あたしがいるじゃない
DYEAR=2004
DGENRE=Vocal
TTITLE0=あたしがいるじゃない
TTITLE1=I gotta go
TTITLE2=Love Jam
EXTD=YEAR: 2004
EXTT0=
EXTT1=
EXTT2=
PLAYORDER=
